<svg xmlns="http://www.w3.org/2000/svg" viewBox="0 0 93.6 67.49"><defs><style>.cls-1,.cls-3{fill:#21409a;}.cls-1,.cls-2{stroke:#21409a;}.cls-1,.cls-2,.cls-4{stroke-miterlimit:10;}.cls-2,.cls-4{fill:none;}.cls-4{stroke:#231f20;}</style></defs><g id="Layer_2" data-name="Layer 2"><g id="Layer_2-2" data-name="Layer 2"><path class="cls-1" d="M82.79,35.57C78.15,34,74,33.26,70.49,33.73c-6.88-2-15.71.07-24.78,5.32,5-4.06,10.53-12.15,11.13-13-9.74,6.4-19.27,11.5-28.33,13.68,4.58-3.9,8-7.75,9.64-11.52-6.79,5.69-13.47,9.53-20,11.16-3.76,1.32-6.4,3.67-9,6.15a31.69,31.69,0,0,0-3.59,3.18c3.63-1.35,10.73-.41,13.11,1.38-4.2-2.28-10.08-.81-17.9,3.45C-1.44,44.11,10,35.35,26.13,30.77c7.68-2.18,12.94-7,17.21-12.48.35,2.47-.49,6-3.26,11.28,10.16-2.09,18.05-6.18,22.39-12.36a15.29,15.29,0,0,1-6.82,12.6C68.56,27.4,77.4,29.55,82.79,35.57Z"/><path class="cls-2" d="M77.45,55.61A11.83,11.83,0,0,0,73.34,48a10.65,10.65,0,0,0-12.05-1.37c-1.84.93-9.46,3.16-13.8,2.47,3.48,4.5,9.25,6.08,17.36,4.68-10.12,6.91-21.41,6.53-34-1.8,2,4.43,4.9,7.63,9.2,8.76C31.4,62.35,25.67,60,23,54.89a10.89,10.89,0,0,0-4.32-4.76h0c-2.38-1.79-9.48-2.73-13.11-1.38a31.69,31.69,0,0,1,3.59-3.18c2.58-2.48,5.22-4.83,9-6.15,6.55-1.63,13.23-5.47,20-11.16C36.5,32,33.09,35.87,28.51,39.77c9.06-2.18,18.59-7.28,28.33-13.68-.6.81-6.11,8.9-11.13,13,9.07-5.25,17.9-7.35,24.78-5.32a11.14,11.14,0,0,0-7.72,4.36C78.57,39.67,81,46.48,77.45,55.61Z"/><path class="cls-3" d="M44,26.18c1.48-6.08,2.17-11.38.74-12.33C43.53,18.28,29.52,28.45,27.15,29,38,20.3,43.67,11.4,45.24,2.14,50.29,10.38,50.82,18.44,44,26.18Z"/><path class="cls-3" d="M63.25,24c1.63-6.05,2.46-11.34,1-12.31C63,16.11,48.73,26.05,46.35,26.6,57.42,18,63.3,9.23,65.1,0,70,8.32,70.28,16.39,63.25,24Z"/><path class="cls-3" d="M93.17,47.93c-3.11-5.52-9.79-9.84-19.57-10.32,2.42-.4,11-1.37,14.68,2C82.35,27.89,72.56,27.89,68.85,27.41,85.76,25.25,95.84,38,93.17,47.93Z"/><path class="cls-3" d="M73.6,67.49C74.93,61.73,75.08,53,62.77,50.21c12.16.12,13.87,5.76,13.72,10.32,8.16-9.84,2.69-15.23,2.15-18.24C87.09,52.61,85.46,59.09,73.6,67.49Z"/><path class="cls-3" d="M67.22,54.65c-.08,5.22-6.68,8-18.69,5.4C56.39,60.41,64.33,58.07,67.22,54.65Z"/><path class="cls-3" d="M52.09,63.53c-8.55,7.35-30.24,3.39-33.24-6.87-.53-1.8-2.45-3.59-3.25-5.25,2.46,1.47,4.47,2,5.94,5.34,3.13,5.59,11.6,9.36,22.76,5.64,0-.69-.89-1.29-1.55-2C46.1,60.89,48.05,63.59,52.09,63.53Z"/><path class="cls-2" d="M73.48,48.43a2.7,2.7,0,0,0-.14-.4c-1.69-4.84-6.85-7.1-16.17-6.22.29-2.38,2-4.42,5.56-6a23.28,23.28,0,0,0-8.79,2.34c-8.35,4.19-12.4,5.15-15.12,5.13l6.78-8.1a53.84,53.84,0,0,1-9.9,4.77c-3.34,1.62-9.8,2.31-12.79,2.07,1.39-1.84,5.15-4.54,6.23-5.49-6,3.33-6.67,3.91-12.79,6a35.27,35.27,0,0,0-7.2,3"/><path class="cls-4" d="M18.67,50.12h0a3.45,3.45,0,0,1,.34.3"/><path class="cls-4" d="M9.15,45.56l-.06.06"/></g></g></svg>